<svg width="297" height="35" viewBox="0 0 297 35" fill="none" xmlns="http://www.w3.org/2000/svg">
<path d="M27.215 11.995H25.505C25.565 10.105 25.445 8.605 25.145 7.495C24.875 6.355 24.335 5.515 23.525 4.975C22.745 4.405 21.59 4.12 20.06 4.12L16.235 4.165L14.75 28.645C14.66 30.355 14.555 31.54 14.435 32.2L18.17 32.02L18.08 34H7.685L7.775 32.515C8.705 32.485 9.395 32.23 9.845 31.75C10.295 31.27 10.595 30.67 10.745 29.95C10.925 29.23 11.045 28.24 11.105 26.98L12.5 4.165L7.865 4.21C6.005 4.21 4.64 4.84 3.77 6.1C2.93 7.33 2.435 9.295 2.285 11.995H0.62L1.385 2.5H27.44L27.215 11.995ZM40.2984 11.005C42.0984 11.005 43.5984 11.425 44.7984 12.265C45.9984 13.105 46.5984 14.41 46.5984 16.18C46.5984 18.4 45.2634 20.125 42.5934 21.355C39.9234 22.585 36.8334 23.395 33.3234 23.785C33.3234 26.605 33.7434 28.72 34.5834 30.13C35.4234 31.54 36.7134 32.245 38.4534 32.245C39.8334 32.245 41.1684 31.795 42.4584 30.895C43.7484 29.965 44.8734 28.6 45.8334 26.8L47.3184 27.655C46.0584 30.025 44.6484 31.765 43.0884 32.875C41.5284 33.955 39.7284 34.495 37.6884 34.495C34.9284 34.495 32.8434 33.64 31.4334 31.93C30.0534 30.19 29.3634 27.805 29.3634 24.775C29.3634 22.345 29.7684 20.095 30.5784 18.025C31.4184 15.925 32.6634 14.23 34.3134 12.94C35.9634 11.65 37.9584 11.005 40.2984 11.005ZM39.6684 12.535C37.7484 12.535 36.2634 13.465 35.2134 15.325C34.1634 17.185 33.5484 19.465 33.3684 22.165C35.9784 21.805 38.2134 21.085 40.0734 20.005C41.9334 18.925 42.8634 17.575 42.8634 15.955C42.8634 14.965 42.5784 14.155 42.0084 13.525C41.4684 12.865 40.6884 12.535 39.6684 12.535ZM78.8887 11.005C80.5687 11.005 81.7687 11.545 82.4887 12.625C83.2387 13.705 83.6137 15.115 83.6137 16.855C83.6137 18.115 83.5387 19.39 83.3887 20.68C83.2387 21.94 83.0137 23.545 82.7137 25.495C82.3237 27.895 82.1287 29.455 82.1287 30.175C82.1287 30.835 82.2037 31.345 82.3537 31.705C82.5337 32.065 82.8637 32.245 83.3437 32.245C83.9137 32.245 84.4987 31.9 85.0987 31.21C85.7287 30.49 86.2537 29.38 86.6737 27.88L87.9337 28.195C87.7837 29.035 87.4537 29.95 86.9437 30.94C86.4637 31.9 85.8037 32.74 84.9637 33.46C84.1237 34.15 83.1487 34.495 82.0387 34.495C80.6887 34.495 79.7437 34.15 79.2037 33.46C78.6937 32.74 78.4387 31.645 78.4387 30.175C78.4387 28.945 78.6787 26.965 79.1587 24.235C79.1887 23.965 79.2937 23.23 79.4737 22.03C79.6537 20.8 79.7887 19.675 79.8787 18.655C79.9987 17.605 80.0587 16.675 80.0587 15.865C80.0587 15.175 79.8937 14.545 79.5637 13.975C79.2337 13.405 78.6787 13.12 77.8987 13.12C76.5487 13.12 75.2287 14.11 73.9387 16.09C72.6787 18.07 71.6437 20.515 70.8337 23.425C70.0537 26.335 69.6637 29.065 69.6637 31.615C69.6637 32.185 69.6937 32.98 69.7537 34H65.9737C65.9437 33.73 65.9287 33.34 65.9287 32.83C65.9287 31.84 66.0187 30.52 66.1987 28.87C66.3787 27.22 66.5737 25.585 66.7837 23.965C67.2937 20.065 67.5487 17.41 67.5487 16C67.5487 14.08 66.8287 13.12 65.3887 13.12C64.0687 13.12 62.7637 14.11 61.4737 16.09C60.2137 18.07 59.1787 20.53 58.3687 23.47C57.5587 26.38 57.1537 29.095 57.1537 31.615C57.1537 32.185 57.1837 32.98 57.2437 34H53.4637C53.4337 33.73 53.4187 33.34 53.4187 32.83C53.4187 32.08 53.4787 31 53.5987 29.59C53.7487 28.15 53.9737 26.23 54.2737 23.83L54.8137 19.15C54.9337 18.1 55.0237 17.305 55.0837 16.765C55.1437 16.195 55.1737 15.7 55.1737 15.28C55.1737 14.65 55.0837 14.155 54.9037 13.795C54.7537 13.435 54.4387 13.255 53.9587 13.255C53.3887 13.255 52.8037 13.615 52.2037 14.335C51.6037 15.055 51.0937 16.15 50.6737 17.62L49.4137 17.35C49.5637 16.51 49.8787 15.595 50.3587 14.605C50.8687 13.615 51.5287 12.775 52.3387 12.085C53.1787 11.365 54.1537 11.005 55.2637 11.005C57.5137 11.005 58.6387 12.505 58.6387 15.505C58.6387 16.345 58.5487 17.275 58.3687 18.295C58.2187 19.315 58.0687 20.23 57.9187 21.04H58.0537C59.3437 17.29 60.6787 14.68 62.0587 13.21C63.4387 11.74 64.8487 11.005 66.2887 11.005C67.9387 11.005 69.1537 11.53 69.9337 12.58C70.7137 13.63 71.1037 14.815 71.1037 16.135C71.1037 16.915 71.0587 17.575 70.9687 18.115C70.8787 18.625 70.6687 19.555 70.3387 20.905H70.4737C71.8237 17.155 73.2037 14.575 74.6137 13.165C76.0237 11.725 77.4487 11.005 78.8887 11.005ZM97.0227 1.285C97.7127 1.285 98.2827 1.525 98.7327 2.005C99.1827 2.485 99.4077 3.1 99.4077 3.85C99.4077 4.6 99.1677 5.215 98.6877 5.695C98.2077 6.145 97.6377 6.37 96.9777 6.37C96.3177 6.37 95.7477 6.145 95.2677 5.695C94.8177 5.215 94.5927 4.6 94.5927 3.85C94.5927 3.1 94.8327 2.485 95.3127 2.005C95.7927 1.525 96.3627 1.285 97.0227 1.285ZM94.4577 11.005C95.6877 11.005 96.6177 11.425 97.2477 12.265C97.9077 13.105 98.2377 14.245 98.2377 15.685C98.2377 16.855 97.9827 18.91 97.4727 21.85C97.1727 23.74 96.9327 25.33 96.7527 26.62C96.6027 27.88 96.5277 29.125 96.5277 30.355C96.5277 31.615 96.9927 32.245 97.9227 32.245C98.4927 32.245 99.0777 31.885 99.6777 31.165C100.278 30.445 100.788 29.35 101.208 27.88L102.468 28.15C102.108 29.77 101.463 31.24 100.533 32.56C99.6027 33.85 98.3877 34.495 96.8877 34.495C94.1877 34.495 92.8377 33.085 92.8377 30.265C92.8377 29.095 92.9127 27.955 93.0627 26.845C93.2127 25.735 93.4377 24.355 93.7377 22.705C94.0377 20.875 94.2477 19.465 94.3677 18.475C94.5177 17.455 94.5927 16.39 94.5927 15.28C94.5927 14.77 94.4877 14.305 94.2777 13.885C94.0977 13.465 93.7827 13.255 93.3327 13.255C92.7627 13.255 92.1777 13.615 91.5777 14.335C90.9777 15.055 90.4677 16.15 90.0477 17.62L88.7877 17.35C89.0577 15.88 89.6727 14.455 90.6327 13.075C91.5927 11.695 92.8677 11.005 94.4577 11.005ZM120.478 11.005C121.408 11.005 122.158 11.245 122.728 11.725C123.328 12.175 123.628 12.805 123.628 13.615C123.628 14.185 123.433 14.695 123.043 15.145C122.653 15.565 122.158 15.775 121.558 15.775C121.018 15.775 120.553 15.61 120.163 15.28C119.773 14.95 119.548 14.485 119.488 13.885C119.368 13.855 119.203 13.84 118.993 13.84C117.733 13.84 116.503 14.845 115.303 16.855C114.103 18.865 113.128 21.31 112.378 24.19C111.628 27.07 111.253 29.695 111.253 32.065C111.253 32.335 111.283 32.98 111.343 34H107.608C107.578 33.73 107.563 33.34 107.563 32.83C107.563 31 107.803 27.925 108.283 23.605L108.868 18.385C109.048 16.825 109.138 15.79 109.138 15.28C109.138 14.65 109.048 14.155 108.868 13.795C108.718 13.435 108.403 13.255 107.923 13.255C107.353 13.255 106.768 13.615 106.168 14.335C105.568 15.055 105.058 16.15 104.638 17.62L103.378 17.35C103.528 16.51 103.843 15.595 104.323 14.605C104.833 13.615 105.493 12.775 106.303 12.085C107.143 11.365 108.118 11.005 109.228 11.005C110.398 11.005 111.238 11.38 111.748 12.13C112.258 12.88 112.513 13.96 112.513 15.37C112.513 16.75 112.288 18.565 111.838 20.815H111.973C113.203 17.185 114.523 14.65 115.933 13.21C117.343 11.74 118.858 11.005 120.478 11.005ZM133.58 11.005C135.35 11.005 136.895 11.425 138.215 12.265C139.565 13.075 140.24 14.125 140.24 15.415C140.24 16.045 140.06 16.555 139.7 16.945C139.34 17.305 138.89 17.485 138.35 17.485C137.84 17.485 137.405 17.305 137.045 16.945C136.715 16.585 136.55 16.165 136.55 15.685C136.55 15.175 136.685 14.71 136.955 14.29C136.775 13.75 136.385 13.315 135.785 12.985C135.185 12.655 134.405 12.49 133.445 12.49C132.395 12.49 131.435 12.835 130.565 13.525C129.725 14.185 129.305 15.025 129.305 16.045C129.305 16.915 129.695 17.695 130.475 18.385C131.255 19.075 132.455 19.885 134.075 20.815C135.425 21.595 136.52 22.3 137.36 22.93C138.2 23.53 138.905 24.25 139.475 25.09C140.075 25.93 140.375 26.875 140.375 27.925C140.375 29.185 140.015 30.31 139.295 31.3C138.605 32.29 137.615 33.07 136.325 33.64C135.035 34.21 133.565 34.495 131.915 34.495C129.965 34.495 128.27 34.06 126.83 33.19C125.42 32.32 124.715 31.15 124.715 29.68C124.715 29.05 124.895 28.525 125.255 28.105C125.645 27.685 126.11 27.475 126.65 27.475C127.22 27.475 127.67 27.67 128 28.06C128.33 28.42 128.495 28.855 128.495 29.365C128.495 29.875 128.36 30.34 128.09 30.76C128.3 31.39 128.765 31.9 129.485 32.29C130.205 32.65 130.985 32.83 131.825 32.83C133.415 32.83 134.615 32.47 135.425 31.75C136.265 31 136.685 29.935 136.685 28.555C136.685 27.565 136.265 26.695 135.425 25.945C134.585 25.195 133.31 24.325 131.6 23.335C129.68 22.225 128.225 21.22 127.235 20.32C126.275 19.42 125.795 18.34 125.795 17.08C125.795 16 126.125 14.995 126.785 14.065C127.445 13.135 128.36 12.4 129.53 11.86C130.73 11.29 132.08 11.005 133.58 11.005ZM148.598 11.005C149.798 11.005 150.698 11.38 151.298 12.13C151.928 12.88 152.243 13.96 152.243 15.37C152.243 16.45 152.003 18.7 151.523 22.12C151.493 22.39 151.358 23.41 151.118 25.18C150.878 26.92 150.758 28.375 150.758 29.545C150.758 30.265 150.908 30.925 151.208 31.525C151.538 32.095 152.093 32.38 152.873 32.38C154.193 32.38 155.513 31.39 156.833 29.41C158.153 27.4 159.233 24.94 160.073 22.03C160.943 19.12 161.378 16.405 161.378 13.885C161.378 13.315 161.348 12.52 161.288 11.5H165.068C165.098 11.77 165.113 12.16 165.113 12.67C165.113 13.39 165.038 14.5 164.888 16C164.738 17.5 164.513 19.45 164.213 21.85L163.763 25.585C163.733 25.975 163.658 26.695 163.538 27.745C163.418 28.795 163.358 29.62 163.358 30.22C163.358 31.54 163.763 32.2 164.573 32.2C165.143 32.2 165.728 31.855 166.328 31.165C166.928 30.445 167.438 29.35 167.858 27.88L169.118 28.15C168.968 28.99 168.638 29.905 168.128 30.895C167.648 31.885 166.988 32.74 166.148 33.46C165.338 34.15 164.378 34.495 163.268 34.495C162.098 34.495 161.228 34.135 160.658 33.415C160.088 32.695 159.803 31.705 159.803 30.445C159.803 29.125 160.073 27.115 160.613 24.415H160.478C159.038 28.285 157.658 30.94 156.338 32.38C155.018 33.79 153.563 34.495 151.973 34.495C150.293 34.495 149.048 33.955 148.238 32.875C147.458 31.765 147.068 30.355 147.068 28.645C147.068 27.355 147.143 26.05 147.293 24.73C147.443 23.41 147.668 21.82 147.968 19.96C148.028 19.63 148.133 18.94 148.283 17.89C148.433 16.81 148.508 15.97 148.508 15.37C148.508 14.68 148.418 14.155 148.238 13.795C148.088 13.435 147.773 13.255 147.293 13.255C146.753 13.255 146.198 13.615 145.628 14.335C145.058 15.025 144.563 16.12 144.143 17.62L142.883 17.35C143.153 15.88 143.768 14.455 144.728 13.075C145.718 11.695 147.008 11.005 148.598 11.005ZM178.423 3.22C178.063 5.32 177.838 6.805 177.748 7.675C177.268 11.185 176.803 15.265 176.353 19.915C175.933 24.535 175.723 27.865 175.723 29.905C175.723 30.655 175.798 31.24 175.948 31.66C176.098 32.05 176.428 32.245 176.938 32.245C177.508 32.245 178.093 31.9 178.693 31.21C179.293 30.49 179.803 29.38 180.223 27.88L181.483 28.195C181.333 29.035 181.018 29.95 180.538 30.94C180.058 31.9 179.398 32.74 178.558 33.46C177.748 34.15 176.788 34.495 175.678 34.495C174.418 34.495 173.503 34.165 172.933 33.505C172.363 32.845 172.078 31.84 172.078 30.49C172.078 28.51 172.333 24.865 172.843 19.555C173.383 14.245 173.938 9.49 174.508 5.29L174.913 2.86L171.718 3.04L171.943 1.24C173.713 1.24 174.988 1.135 175.768 0.924999C176.548 0.714998 177.178 0.414998 177.658 0.0249975H178.918L178.423 3.22ZM190.987 11.5H198.142L198.007 13.21L190.807 13.3L190.492 16.18C189.832 21.88 189.502 25.915 189.502 28.285C189.502 29.455 189.637 30.4 189.907 31.12C190.177 31.84 190.747 32.2 191.617 32.2C193.177 32.2 194.587 31.15 195.847 29.05L197.017 29.815C196.087 31.405 195.112 32.59 194.092 33.37C193.102 34.12 191.917 34.495 190.537 34.495C188.887 34.495 187.687 34 186.937 33.01C186.217 32.02 185.857 30.745 185.857 29.185C185.857 27.445 185.962 25.165 186.172 22.345C186.382 19.495 186.667 16.495 187.027 13.345L183.022 13.39L183.157 11.5C184.957 11.5 186.412 10.975 187.522 9.925C188.632 8.845 189.487 7.255 190.087 5.155H191.797L190.987 11.5ZM213.229 11.005C215.269 11.005 217.279 11.26 219.259 11.77C217.939 21.55 217.279 27.55 217.279 29.77C217.279 30.55 217.354 31.165 217.504 31.615C217.654 32.035 217.999 32.245 218.539 32.245C219.109 32.245 219.694 31.885 220.294 31.165C220.894 30.445 221.404 29.35 221.824 27.88L223.084 28.15C222.934 28.99 222.604 29.905 222.094 30.895C221.614 31.885 220.954 32.74 220.114 33.46C219.304 34.15 218.344 34.495 217.234 34.495C215.014 34.495 213.904 33.145 213.904 30.445C213.904 29.125 214.174 27.115 214.714 24.415H214.579C213.319 28.375 211.939 31.045 210.439 32.425C208.939 33.805 207.394 34.495 205.804 34.495C204.064 34.495 202.669 33.865 201.619 32.605C200.599 31.345 200.089 29.365 200.089 26.665C200.089 23.785 200.584 21.16 201.574 18.79C202.564 16.42 204.049 14.53 206.029 13.12C208.009 11.71 210.409 11.005 213.229 11.005ZM211.834 12.625C210.094 12.625 208.624 13.255 207.424 14.515C206.224 15.745 205.324 17.38 204.724 19.42C204.154 21.43 203.869 23.59 203.869 25.9C203.869 30.31 204.844 32.515 206.794 32.515C208.114 32.515 209.434 31.48 210.754 29.41C212.074 27.34 213.169 24.79 214.039 21.76C214.909 18.7 215.344 15.835 215.344 13.165C214.444 12.805 213.274 12.625 211.834 12.625ZM240.897 11.005C242.577 11.005 243.807 11.545 244.587 12.625C245.397 13.705 245.802 15.115 245.802 16.855C245.802 18.865 245.517 21.745 244.947 25.495C244.617 27.865 244.452 29.425 244.452 30.175C244.452 30.835 244.527 31.345 244.677 31.705C244.857 32.065 245.187 32.245 245.667 32.245C246.237 32.245 246.822 31.9 247.422 31.21C248.022 30.49 248.532 29.38 248.952 27.88L250.212 28.195C250.062 29.035 249.732 29.95 249.222 30.94C248.742 31.9 248.082 32.74 247.242 33.46C246.432 34.15 245.472 34.495 244.362 34.495C243.012 34.495 242.067 34.15 241.527 33.46C240.987 32.74 240.717 31.645 240.717 30.175C240.717 29.065 240.912 27.085 241.302 24.235C241.842 20.575 242.112 17.785 242.112 15.865C242.112 15.175 241.947 14.545 241.617 13.975C241.317 13.405 240.777 13.12 239.997 13.12C238.677 13.12 237.327 14.125 235.947 16.135C234.567 18.115 233.412 20.575 232.482 23.515C231.582 26.425 231.132 29.125 231.132 31.615C231.132 32.185 231.162 32.98 231.222 34H227.442C227.412 33.73 227.397 33.34 227.397 32.83C227.397 32.11 227.457 31.105 227.577 29.815C227.727 28.525 227.937 26.83 228.207 24.73C228.207 24.55 228.237 24.25 228.297 23.83C228.327 23.44 228.372 23.035 228.432 22.615C228.492 22.195 228.537 21.775 228.567 21.355C228.777 19.525 228.927 18.19 229.017 17.35C229.107 16.51 229.152 15.82 229.152 15.28C229.152 14.65 229.062 14.155 228.882 13.795C228.732 13.435 228.417 13.255 227.937 13.255C227.367 13.255 226.782 13.615 226.182 14.335C225.582 15.055 225.072 16.15 224.652 17.62L223.392 17.35C223.542 16.51 223.857 15.595 224.337 14.605C224.847 13.615 225.507 12.775 226.317 12.085C227.157 11.365 228.132 11.005 229.242 11.005C231.492 11.005 232.617 12.55 232.617 15.64C232.617 16.51 232.527 17.47 232.347 18.52C232.197 19.54 232.047 20.455 231.897 21.265H232.032C233.472 17.425 234.897 14.755 236.307 13.255C237.747 11.755 239.277 11.005 240.897 11.005ZM263.633 11.005C265.253 11.005 266.708 11.395 267.998 12.175C269.318 12.955 270.338 14.095 271.058 15.595C271.808 17.065 272.183 18.82 272.183 20.86C272.183 23.32 271.733 25.585 270.833 27.655C269.963 29.725 268.688 31.39 267.008 32.65C265.358 33.88 263.408 34.495 261.158 34.495C258.308 34.495 256.148 33.565 254.678 31.705C253.238 29.815 252.518 27.385 252.518 24.415C252.518 21.955 252.968 19.705 253.868 17.665C254.768 15.625 256.058 14.005 257.738 12.805C259.418 11.605 261.383 11.005 263.633 11.005ZM262.913 12.67C261.593 12.67 260.438 13.15 259.448 14.11C258.488 15.04 257.753 16.33 257.243 17.98C256.733 19.6 256.478 21.415 256.478 23.425C256.478 25.915 256.883 28.105 257.693 29.995C258.503 31.855 259.823 32.785 261.653 32.785C263.183 32.785 264.428 32.2 265.388 31.03C266.378 29.86 267.098 28.42 267.548 26.71C267.998 25 268.223 23.335 268.223 21.715C268.223 19.195 267.818 17.065 267.008 15.325C266.228 13.555 264.863 12.67 262.913 12.67ZM290.564 11.005C292.334 11.005 293.684 11.755 294.614 13.255C295.574 14.725 296.054 16.6 296.054 18.88C296.054 20.86 295.679 22.885 294.929 24.955C294.299 26.605 293.429 28.165 292.319 29.635C291.209 31.075 289.934 32.245 288.494 33.145C287.084 34.045 285.629 34.495 284.129 34.495C282.329 34.495 281.039 33.895 280.259 32.695C279.479 31.495 279.089 29.95 279.089 28.06C279.089 26.44 279.164 24.73 279.314 22.93C279.494 21.13 279.599 20.065 279.629 19.735C279.869 17.755 279.989 16.285 279.989 15.325C279.989 14.695 279.899 14.2 279.719 13.84C279.539 13.48 279.209 13.3 278.729 13.3C278.189 13.3 277.634 13.66 277.064 14.38C276.524 15.1 276.059 16.21 275.669 17.71L274.409 17.395C274.559 16.525 274.859 15.61 275.309 14.65C275.759 13.66 276.389 12.805 277.199 12.085C278.039 11.365 279.029 11.005 280.169 11.005C281.339 11.005 282.224 11.41 282.824 12.22C283.424 13 283.724 14.125 283.724 15.595C283.724 16.885 283.559 19.54 283.229 23.56C282.989 26.62 282.869 28.48 282.869 29.14C282.869 30.01 283.004 30.715 283.274 31.255C283.544 31.795 284.099 32.065 284.939 32.065C285.929 32.065 286.979 31.69 288.089 30.94C289.229 30.19 290.249 29.185 291.149 27.925C292.079 26.665 292.769 25.33 293.219 23.92C293.399 23.38 293.549 22.69 293.669 21.85C293.819 20.98 293.894 20.11 293.894 19.24C293.894 17.98 293.714 16.885 293.354 15.955C293.024 14.995 292.469 14.35 291.689 14.02C291.359 14.77 290.759 15.145 289.889 15.145C289.409 15.145 288.974 14.995 288.584 14.695C288.224 14.365 288.029 13.885 287.999 13.255C287.999 12.685 288.209 12.175 288.629 11.725C289.049 11.245 289.694 11.005 290.564 11.005Z" fill="#594D57"/>
</svg>
