<svg width="28" height="40" viewBox="0 0 28 40" fill="none" xmlns="http://www.w3.org/2000/svg">
<path d="M4.30944 2.20334L9.04123 0L15.7646 13.15L11.2324 15.385C10.3373 17.4834 14.8245 25.8667 16.7179 26.0051C16.8676 25.9084 21.1619 23.7917 21.1619 23.7917L28 37.0118C28 37.0118 23.4013 39.2684 23.2516 39.3384C10.1709 45.3235 -8.53162 8.90836 4.30944 2.20334ZM7.51887 4.32668L5.81682 5.16668C-2.99123 9.77003 12.7664 40.4751 21.869 36.3101L23.4845 35.5201L19.7061 28.2151L17.999 29.0484C12.7365 31.6267 4.25287 15.35 9.58861 12.485L11.264 11.6567L7.51887 4.32668Z" fill="#594D57"/>
</svg>
